<svg height="200" viewBox="0 0 200 200" width="200" xmlns="http://www.w3.org/2000/svg"><g fill="none"><path d="m175.001563 0h-150.0031255c-13.78125.03125-24.95078125 11.2007813-24.9984375 25v150c0 13.75 11.2476563 25 24.9984375 25h150.0031255c13.75 0 24.998437-11.25 24.998437-25v-150c0-13.75-11.247656-25-24.998437-25" fill="#e44332"/><g fill="#fff"><path d="m42.4409525 95.2689202c3.4990481-2.0655033 78.6701735-46.2281203 80.3887295-47.2513608 1.718555-1.010559 1.811853-4.1183252-.125442-5.2430179-1.923967-1.1175594-5.579818-3.2409221-6.935376-4.0557101-1.936246-1.0768928-4.289374-1.0480104-6.199187.0760891-.961983.5682909-65.1914294 38.28156-67.3349198 39.5188013-2.5809694 1.4916643-5.7491642 1.5170274-8.3105332 0l-33.924224-20.1247871v17.1065842c8.24781225 4.9140908 28.7873736 17.1192657 33.7611494 19.9932162 2.9682716 1.7056651 5.8118851 1.6684131 8.6860752-.0190223"/><path d="m42.4409525 126.304484c3.4990481-2.066306 78.6701735-46.2291455 80.3887295-47.2523912 1.718555-1.0105641 1.811853-4.1183458-.125442-5.2430442-1.923967-1.117565-5.579818-3.2409384-6.935376-4.0557305-1.936246-1.0768982-4.289374-1.0480157-6.199187.0760895-.961983.5682937-65.1914294 38.2809594-67.3349198 39.5190004-2.5809694 1.491671-5.7491642 1.516242-8.3105332 0l-33.924224-20.1248887v17.1066707c8.24781225 4.914115 28.7873736 17.119351 33.7611494 19.993316 2.9682716 1.705674 5.8118851 1.667629 8.6860752-.019022"/><path d="m42.4409525 160.78686c3.4990481-2.066293 78.6701735-46.228837 80.3887295-47.252076 1.718555-1.010557 1.811853-4.118318-.125442-5.243009-1.923967-1.117558-5.579818-3.240124-6.935376-4.055704-1.936246-1.076891-4.289374-1.048008-6.199187.076089-.961983.56829-65.1914294 38.281497-67.3349198 39.518737-2.5809694 1.491661-5.7491642 1.517024-8.3105332 0l-33.924224-20.124754v17.106556c8.24781225 4.914082 28.7873736 17.12003 33.7611494 19.993183 2.9682716 1.705662 5.8118851 1.66841 8.6860752-.01823"/><path d="m59.7808819 26.6024468c.7271186-2.1882047.9792751-4.5065706.739767-6.8002367s-.9651673-4.5095605-2.1284923-6.4994195c-1.7243933-3.0097644-4.3584957-5.39270726-7.5220456-6.80498161-3.1635499-1.41225809-6.6930915-1.78083716-10.0794471-1.05253519-1.5273708-1.72488894-3.4046795-3.10295736-5.5065778-4.04193861-2.1018983-.93897313-4.3795764-1.41721593-6.6807674-1.40302853-3.4620837-.00805308-6.8374125 1.08553898-9.639349 3.12344875-2.8019364 2.03789353-4.8856243 4.91479924-5.9507299 8.21593979-2.2553813.4626494-4.38612755 1.4027681-6.24958799 2.7574368-1.86346045 1.3546686-3.41663063 3.0925899-4.55553453 5.0974963-1.73821896 3.0015095-2.4801897 6.4784896-2.11891194 9.9299575.36127937 3.4513053 1.80712982 6.6983501 4.12904473 9.2729761-.72702135 2.1882046-.97922644 4.5065706-.73973457 6.8002367.23949186 2.2936661.96515108 4.5094955 2.12841119 6.499452 1.72462035 3.0096344 4.35870655 5.3923498 7.52227261 6.8046241 3.1635337 1.4122744 6.6930753 1.7809834 10.0792687 1.0528277 1.5273708 1.7249214 3.4048418 3.1029086 5.5065779 4.0419874 2.1018982.9389162 4.3795763 1.4171493 6.6807674 1.4030054 3.4638674.0087814 6.84098-1.0853209 9.6438894-3.1245144 2.8030715-2.0391935 4.8871324-4.9181792 5.9513785-8.221286 2.2553002-.4626331 4.3860627-1.4026869 6.249588-2.7574368 1.8633632-1.3545874 3.4165171-3.0926712 4.5555183-5.0975775 1.7360688-3.0011846 2.4763222-6.4773522 2.1140602-9.9273576-.3620999-3.4500053-1.8080671-6.6955876-4.1293658-9.2690761zm-24.3798795 34.1477693c-2.8434491.0040501-5.5975488-.9938531-7.7810128-2.8190361.0984302-.053787.271129-.1486861.383667-.217748l12.9149503-7.4757428c.3241549-.1847608.5933379-.4527208.7798202-.7764178.1866444-.323697.2837773-.6912686.2815071-1.0648526v-18.2458176l5.4589033 3.1586456c.0285399.0142999.0531879.0354247.0718362.0615869.018486.0261623.0301614.0565495.0342154.0882367v15.1102468c-.004054 3.2273824-1.2844574 6.3215161-3.560676 8.6046199-2.2762186 2.2832662-5.3627432 3.5692792-8.5832107 3.576279zm-26.11648344-11.1774707c-1.42423797-2.4660771-1.93755065-5.3554627-1.45006982-8.162624.09590053.0576869.26341025.1602235.38361833.2294478l12.91493413 7.4755804c.3218846.1884983.6880385.2879473 1.0608408.2879473.3726402 0 .7387941-.099449 1.0606787-.2879473l15.7681055-9.1234775v6.3172911c.0014828.0321747-.0046792.0645119-.0183006.0937617-.0136213.0292497-.0342154.054762-.0599986.0740993l-13.0557039 7.5537421c-2.7925313 1.6118225-6.1091588 2.047481-9.221953 1.2117513-3.1128592-.8357298-5.7677341-2.8747608-7.38215154-5.6695722zm-3.39754457-28.2536119c1.41805973-2.469327 3.65784137-4.3598344 6.32706731-5.3408378 0 .111474-.006389.3089096-.006389.4458959v14.9513232c-.0022703.3734215.0947492.7406681.2810531 1.0642026.1863038.323372.4551788.5911695.7790093.7759303l15.7677559 9.12234-5.458741 3.1584831c-.0269183.0178748-.0578906.0285997-.089998.0315247s-.0645391-.0021125-.0942141-.0147873l-13.0569039-7.5602421c-2.78768268-1.617835-4.82145818-4.2772852-5.65539062-7.3954687-.83393244-3.1180209-.3999639-6.4403025 1.20675101-9.2383639zm44.84968021 10.4587276-15.7679668-9.1234776 5.4589033-3.1573456c.0269183-.0177123.0578905-.0285997.0899979-.0315247.0321074-.0029249.0643769.002275.0940519.0149499l13.0570012 7.5537421c2.0003871 1.1579643 3.6300799 2.8628984 4.6985421 4.9154168 1.0683001 2.0525184 1.5309383 4.3674718 1.3339157 6.6739753s-1.0459222 4.509008-2.4468094 6.3496284c-1.4010493 1.8406203-3.2963576 3.2431448-5.4640923 4.0432873 0-.1127739 0-.3100471 0-.4471958v-14.9513233c.003081-.3727715-.0929168-.7396931-.2781018-1.0630651s-.4527465-.5914945-.7754418-.7770677zm5.43312-8.1944737c-.0958357-.058987-.2633454-.1602235-.3835048-.2292854l-12.9151125-7.4757429c-.3218846-.1881732-.6878763-.2874598-1.0606787-.2874598-.3726402 0-.738794.0992866-1.0606786.2874598l-15.7681056 9.1236401v-6.3172912c-.0014827-.0323372.0046793-.0645119.0183006-.0937616.0136213-.0292498.0342154-.054762.0599986-.0740993l13.0557039-7.547486c2.0000628-1.15572174 4.2873082-1.71678026 6.5940127-1.61755868 2.3067044.09923782 4.5373565.85466078 6.4313676 2.17790218 1.893849 1.3232415 3.3725722 3.1595719 4.2631466 5.2942332.8905744 2.1345802 1.15619 4.4791083.7655502 6.7594496zm-34.1556038 11.2596826-5.4602005-3.1586456c-.0285399-.0142998-.0533501-.0354246-.0718362-.0615869-.0184861-.0261622-.0303236-.0565495-.0342154-.0883992v-15.1102467c.0014594-2.3142222.6607958-4.5802149 1.9006596-6.53266671 1.2400259-1.95245182 3.0093371-3.51056856 5.1008573-4.49197817 2.0915201-.98140961 4.4186565-1.34548747 6.7091451-1.04964272 2.2906508.29584474 4.4496288 1.2393922 6.2244534 2.72017591-.0984302.0538195-.2698317.14865362-.3836669.21784548l-12.9149504 7.47564541c-.3241548.1846145-.5931757.4523795-.7798201.7758165-.1864823.323372-.2836152.6907811-.2815072 1.0642026zm2.9652301-6.4069903 7.0227596-4.0645747 7.0225975 4.0619747v8.1265493l-7.0225975 4.0621372-7.0227596-4.0621372z" transform="translate(123 124)"/></g></g></svg>